<svg width="60" height="60" viewBox="0 0 60 60" fill="none" xmlns="http://www.w3.org/2000/svg">
<g clip-path="url(#clip0_3_2896)">
<path d="M43.025 22.5L32.075 6.10005C31.6 5.40005 30.8 5.05005 30 5.05005C29.2 5.05005 28.4 5.40005 27.925 6.12505L16.975 22.5H5C3.625 22.5 2.5 23.625 2.5 25C2.5 25.225 2.525 25.45 2.6 25.675L8.95 48.8501C9.525 50.9501 11.45 52.5 13.75 52.5H46.25C48.55 52.5 50.475 50.9501 51.075 48.8501L57.425 25.675L57.5 25C57.5 23.625 56.375 22.5 55 22.5H43.025ZM22.5 22.5L30 11.5L37.5 22.5H22.5ZM30 42.5C27.25 42.5 25 40.25 25 37.5C25 34.75 27.25 32.5 30 32.5C32.75 32.5 35 34.75 35 37.5C35 40.25 32.75 42.5 30 42.5Z" fill="#3F2A7B"/>
</g>
<defs>
<clipPath id="clip0_3_2896">
<rect width="60" height="60" fill="white"/>
</clipPath>
</defs>
</svg>
