<svg width="60" height="60" viewBox="0 0 60 60" fill="none" xmlns="http://www.w3.org/2000/svg">
<g clip-path="url(#clip0_565_3102)">
<path d="M43.025 22.4998L32.075 6.0998C31.6 5.3998 30.8 5.0498 30 5.0498C29.2 5.0498 28.4 5.3998 27.925 6.1248L16.975 22.4998H5C3.625 22.4998 2.5 23.6248 2.5 24.9998C2.5 25.2248 2.525 25.4498 2.6 25.6748L8.95 48.8498C9.525 50.9498 11.45 52.4998 13.75 52.4998H46.25C48.55 52.4998 50.475 50.9498 51.075 48.8498L57.425 25.6748L57.5 24.9998C57.5 23.6248 56.375 22.4998 55 22.4998H43.025ZM22.5 22.4998L30 11.4998L37.5 22.4998H22.5ZM30 42.4998C27.25 42.4998 25 40.2498 25 37.4998C25 34.7498 27.25 32.4998 30 32.4998C32.75 32.4998 35 34.7498 35 37.4998C35 40.2498 32.75 42.4998 30 42.4998Z" fill="black"/>
</g>
<defs>
<clipPath id="clip0_565_3102">
<rect width="60" height="60" fill="white"/>
</clipPath>
</defs>
</svg>
